<?xml version="1.0" standalone="no"?><!DOCTYPE svg PUBLIC "-//W3C//DTD SVG 1.1//EN" "http://www.w3.org/Graphics/SVG/1.1/DTD/svg11.dtd"><svg t="1605778197586" class="icon" viewBox="0 0 1024 1024" version="1.1" xmlns="http://www.w3.org/2000/svg" p-id="3857" xmlns:xlink="http://www.w3.org/1999/xlink" width="100" height="100"><defs><style type="text/css"></style></defs><path d="M691.2 452.266667c34.133333-34.133333 34.133333-85.333333 0-119.466667-34.133333-34.133333-85.333333-34.133333-119.466667 0l-200.533333 200.533333 119.466667 119.466667 200.533333-200.533333zM307.2 691.2c-4.266667 17.066667 8.533333 29.866667 25.6 25.6l128-34.133333L341.333333 563.2l-34.133333 128z" p-id="3858" fill="#ffffff"></path><path d="M341.333333 217.6C392.533333 187.733333 452.266667 170.666667 512 170.666667c140.8 0 273.066667 89.6 320 221.866666 4.266667 17.066667 21.333333 29.866667 38.4 29.866667 4.266667 0 8.533333 0 12.8-4.266667 21.333333-8.533333 34.133333-34.133333 25.6-55.466666C849.066667 196.266667 691.2 85.333333 512 85.333333c-76.8 0-149.333333 21.333333-213.333333 59.733334-21.333333 8.533333-29.866667 34.133333-17.066667 55.466666 12.8 21.333333 38.4 29.866667 59.733333 17.066667zM341.333333 806.4c-106.666667-59.733333-170.666667-174.933333-170.666666-294.4 0-81.066667 29.866667-157.866667 81.066666-217.6 17.066667-17.066667 12.8-46.933333-4.266666-59.733333-21.333333-17.066667-46.933333-12.8-64 4.266666C119.466667 315.733333 85.333333 413.866667 85.333333 512c0 153.6 81.066667 294.4 213.333334 371.2 8.533333 4.266667 12.8 4.266667 21.333333 4.266667 12.8 0 29.866667-8.533333 38.4-21.333334 12.8-21.333333 4.266667-46.933333-17.066667-59.733333zM896 469.333333c-25.6 0-42.666667 21.333333-42.666667 42.666667 0 187.733333-153.6 341.333333-341.333333 341.333333-21.333333 0-38.4 0-59.733333-4.266666-25.6-4.266667-46.933333 12.8-51.2 34.133333-4.266667 21.333333 12.8 46.933333 34.133333 51.2 25.6 4.266667 51.2 4.266667 76.8 4.266667 234.666667 0 426.666667-192 426.666667-426.666667 0-25.6-17.066667-42.666667-42.666667-42.666667z" p-id="3859" fill="#ffffff"></path></svg>